<svg version="1.1" id="Layer_1" xmlns="http://www.w3.org/2000/svg" xmlns:xlink="http://www.w3.org/1999/xlink" x="0px" y="0px"
	 width="100%" viewBox="0 0 1200 1043" enable-background="new 0 0 1200 1043" xml:space="preserve">
<path fill="#61DAFB" opacity="1.000000" stroke="none"
	d="
M864.000000,1044.000000
	C843.979126,1044.000000 823.958191,1044.000000 803.802002,1043.679199
	C803.010620,1042.915161 802.403320,1042.194458 801.691223,1042.069092
	C782.610168,1038.709106 764.702515,1031.777344 747.296814,1023.615845
	C721.429382,1011.486877 697.337341,996.411316 674.460632,979.247009
	C654.013062,963.905273 634.139404,947.951782 615.692810,930.238098
	C610.953186,925.686707 605.951599,921.408020 601.028931,916.966797
	C592.087097,925.074707 583.313843,933.273499 574.272644,941.165466
	C563.298889,950.744202 552.484558,960.570068 540.911438,969.383118
	C520.961609,984.575012 500.620544,999.213562 478.499329,1011.289551
	C453.699646,1024.827759 428.318512,1036.602539 400.388397,1042.091187
	C399.822418,1042.202393 399.458282,1043.340820 399.000000,1044.000000
	C378.979095,1044.000000 358.958221,1044.000000 338.801453,1043.688110
	C335.798950,1042.458252 332.923828,1041.565552 330.066895,1040.618164
	C299.905365,1030.616333 277.775665,1011.308655 262.705963,983.389709
	C246.911179,954.127441 240.774918,922.372253 239.302902,889.787109
	C238.356995,868.848267 239.768768,847.739563 241.183395,826.778442
	C242.224106,811.358093 244.496307,795.971130 247.091690,780.717651
	C250.588501,760.166199 254.923355,739.757324 258.897186,719.294250
	C251.650421,717.096497 243.610764,714.720032 235.609573,712.220459
	C209.282654,703.996094 183.216812,694.930115 158.495224,682.680054
	C138.390579,672.717651 118.484077,662.170166 99.371872,650.444275
	C81.587402,639.533081 65.530586,625.953491 51.837170,610.090271
	C43.816174,600.798279 36.207458,590.897400 30.018442,580.330322
	C17.472248,558.909058 11.840831,535.721558 14.858272,510.599487
	C16.364637,498.058075 19.554119,486.200134 24.674896,474.743469
	C36.088860,449.207153 54.800957,429.505676 75.806824,411.893738
	C92.595245,397.817871 111.212311,386.267639 130.513702,375.898224
	C154.315353,363.111115 179.036880,352.332886 204.469894,343.287354
	C222.672211,336.813446 241.148972,331.111206 259.367889,325.109283
	C258.192566,319.807007 256.783020,314.017853 255.637558,308.176910
	C251.709839,288.148499 247.340256,268.185883 244.174210,248.035553
	C241.663422,232.055710 239.562073,215.857346 239.271957,199.720169
	C238.870636,177.396606 239.443573,154.964966 241.290573,132.720032
	C242.784836,114.723145 247.297607,97.050957 254.045990,80.141068
	C260.330536,64.393501 268.254578,49.496910 279.718872,36.900585
	C295.194733,19.896572 313.908020,7.995512 336.617950,2.914451
	C337.192627,2.785869 337.544312,1.660491 338.000000,0.999996
	C358.020905,1.000000 378.041779,1.000000 398.196991,1.320277
	C398.821228,2.070872 399.261383,2.796525 399.808289,2.888678
	C417.293854,5.834848 433.876587,11.739854 449.882965,19.072514
	C480.311371,33.012024 508.825012,50.244530 534.797546,71.407852
	C552.430298,85.775604 569.595581,100.718292 586.921265,115.461014
	C591.770264,119.587135 596.446777,123.915985 600.892334,127.875694
	C612.827942,117.204109 624.342896,106.589607 636.212891,96.388176
	C647.366516,86.802376 658.393921,76.943092 670.378418,68.480927
	C687.526672,56.372578 705.163818,44.870071 723.194580,34.119061
	C747.592346,19.571669 773.515686,8.404014 801.613831,2.908503
	C802.178711,2.798038 802.542419,1.659095 803.000000,0.999992
	C823.020874,1.000000 843.041809,1.000000 863.198608,1.311759
	C864.148926,2.080832 864.911743,2.759256 865.785339,2.963179
	C888.594666,8.287886 907.608032,20.174967 922.876038,37.594353
	C937.145996,53.875057 946.169922,73.140198 952.523743,93.842987
	C958.684875,113.918159 961.970276,134.519119 962.691956,155.270813
	C963.420898,176.230194 962.111938,197.302689 960.843689,218.274094
	C960.027893,231.764069 958.182983,245.248428 955.894897,258.580078
	C952.040710,281.036774 947.467896,303.370148 943.202454,325.728912
	C947.509216,327.000610 952.619873,328.479340 957.712341,330.018433
	C987.683655,339.076599 1017.055664,349.775635 1045.471313,362.939392
	C1067.222900,373.015930 1088.143311,384.578583 1107.913818,398.267181
	C1125.872070,410.700928 1142.073242,424.953735 1156.111938,441.642853
	C1171.481934,459.914734 1182.184570,480.310974 1186.265869,504.235565
	C1188.660889,518.275330 1188.403320,532.034912 1185.559937,545.694336
	C1180.736938,568.863220 1169.249023,588.924622 1153.786255,606.504517
	C1138.751465,623.597961 1121.638428,638.689087 1102.305542,650.711304
	C1085.308350,661.281189 1067.759888,671.158508 1049.715332,679.796814
	C1030.860352,688.822937 1011.312378,696.513306 991.711365,703.834656
	C975.574463,709.862122 958.917175,714.496094 942.599731,719.712769
	C943.800903,725.165710 945.192078,730.945251 946.336426,736.773254
	C950.269348,756.803589 954.651978,776.766541 957.824707,796.918640
	C960.339539,812.891846 962.335815,829.078613 962.758972,845.217834
	C963.364746,868.322632 963.791260,891.467957 960.209229,914.545105
	C957.565674,931.576538 954.176819,948.275085 948.009277,964.374390
	C941.807922,980.561768 933.604431,995.645020 921.893982,1008.481201
	C906.516174,1025.337280 887.882080,1037.023560 865.382202,1042.085815
	C864.807068,1042.215210 864.455750,1043.339600 864.000000,1044.000000
M707.193176,338.759888
	C702.193848,338.173401 697.208618,337.368469 692.192322,337.043671
	C679.855957,336.244995 667.512085,335.467987 655.158752,335.050415
	C639.242676,334.512421 623.315491,334.189178 607.390869,334.065918
	C600.303162,334.011047 593.213257,334.791840 586.118652,334.981293
	C570.696533,335.393097 555.269775,335.624420 539.847046,336.016083
	C530.090698,336.263824 520.335999,336.612701 510.585175,337.026062
	C506.159637,337.213745 501.704346,337.417969 497.347565,338.132843
	C495.760040,338.393341 493.992035,339.868744 493.035645,341.283020
	C487.047913,350.137512 480.995453,358.967499 475.466370,368.109253
	C457.480774,397.846588 439.252502,427.452606 422.019867,457.624512
	C410.462769,477.859436 400.390991,498.945526 389.818359,519.734009
	C389.070618,521.204224 389.029999,523.679993 389.753204,525.151062
	C396.042236,537.943909 402.355499,550.735168 409.096497,563.293396
	C420.258057,584.086853 431.103180,605.091187 443.249878,625.304626
	C459.249084,651.928955 476.347290,677.894043 493.106659,704.056946
	C493.995544,705.444580 496.032318,706.617126 497.696594,706.885376
	C501.895660,707.562195 506.182892,707.742188 510.442596,707.983154
	C522.956665,708.691284 535.467896,709.531006 547.992554,709.949890
	C564.075378,710.487915 580.169983,710.905212 596.260071,710.927124
	C610.016174,710.945923 623.774658,710.383423 637.529236,709.980286
	C645.122620,709.757629 652.710632,709.346008 660.300110,708.998047
	C674.648193,708.340271 689.003296,707.786499 703.334351,706.862061
	C705.321777,706.733826 707.884399,705.209351 709.002258,703.541443
	C718.005432,690.107666 727.077148,676.697388 735.456360,662.872803
	C750.615601,637.861938 765.752441,612.817688 780.058228,587.315918
	C791.463989,566.983826 801.665344,545.973816 812.231812,525.178589
	C812.971680,523.722473 812.929443,521.243347 812.196167,519.762085
	C805.586060,506.408844 798.954163,493.057556 791.913696,479.928223
	C781.066467,459.699677 770.548218,439.250519 758.696716,419.615417
	C742.320862,392.484497 724.835632,366.023163 707.193176,338.759888
M294.938904,128.294632
	C293.625916,138.478897 291.493408,148.639236 291.195129,158.853149
	C290.764923,173.582840 291.500793,188.357742 292.060394,203.101151
	C292.409271,212.293015 292.936981,221.516418 294.127777,230.628525
	C295.705780,242.703842 297.736115,254.737671 300.070038,266.692108
	C303.072083,282.069000 306.567841,297.349457 309.815674,312.506897
	C312.091309,312.230560 313.827484,312.132111 315.516754,311.797241
	C331.877838,308.553986 348.196106,305.081085 364.598694,302.065948
	C375.630890,300.038025 386.777527,298.631226 397.875824,296.965424
	C408.978851,295.298920 420.057373,293.425446 431.198517,292.068726
	C441.927917,290.762177 452.731323,290.070923 463.480286,288.907043
	C464.777771,288.766510 466.278534,287.617798 467.107849,286.505859
	C472.641113,279.087067 477.821808,271.399811 483.485046,264.084656
	C495.755463,248.235016 508.127686,232.460587 520.689392,216.841232
	C529.097961,206.385895 537.845337,196.200134 546.552856,185.989044
	C552.296631,179.253448 558.238892,172.687103 564.495239,165.587738
	C559.481812,161.051392 554.707458,156.521744 549.712097,152.250534
	C534.394897,139.153778 519.344727,125.711090 503.543030,113.222397
	C478.710999,93.596764 452.261505,76.402199 422.779846,64.425430
	C401.761749,55.886940 380.425415,48.916252 357.087585,51.914146
	C344.246124,53.563709 333.129669,58.570381 323.543274,67.027000
	C314.202362,75.267090 307.790436,85.737556 303.546173,97.225998
	C299.932220,107.008308 297.787964,117.333565 294.938904,128.294632
M423.018585,980.487122
	C424.669495,979.835876 426.395996,979.329102 427.959167,978.510376
	C439.244476,972.599670 451.054016,967.470459 461.637482,960.487244
	C480.588287,947.983032 498.954285,934.567200 517.242615,921.095154
	C525.926392,914.698181 534.032043,907.477966 542.098999,900.293213
	C549.722473,893.503235 556.952148,886.271179 564.370605,879.218811
	C558.569031,872.598022 553.061584,866.508301 547.771057,860.235718
	C535.849304,846.100891 523.689209,832.147522 512.261230,817.620605
	C496.878510,798.066406 482.103455,778.034424 467.021606,758.242554
	C466.320740,757.322815 465.234253,756.209167 464.221436,756.090637
	C454.474304,754.949463 444.698120,754.059875 434.942657,752.985779
	C423.249329,751.698303 411.523865,750.598938 399.893250,748.872864
	C386.569031,746.895508 373.319275,744.398376 360.063202,741.984009
	C343.513794,738.969910 326.990967,735.809937 310.006134,732.628479
	C308.070526,740.990295 305.738159,749.728149 304.065063,758.590393
	C301.144775,774.058838 298.307281,789.556946 296.040314,805.130676
	C293.947327,819.509277 291.696167,833.970947 291.200714,848.453674
	C290.205444,877.548035 290.353485,906.678162 298.993134,934.972717
	C303.326019,949.162781 309.092468,962.656128 319.274048,973.698486
	C336.396545,992.268494 358.340851,996.836121 382.019714,992.666382
	C395.733521,990.251404 408.939240,984.951111 423.018585,980.487122
M878.472778,66.982033
	C866.997620,56.692482 853.277039,51.817749 838.143127,51.087498
	C825.331543,50.469307 812.884888,53.170036 800.620117,56.745323
	C775.736206,63.999180 752.841553,75.519043 731.527039,90.012276
	C715.173523,101.132141 699.403076,113.124657 683.586914,125.013260
	C675.760864,130.895889 668.218567,137.197311 660.907593,143.712860
	C652.922058,150.829559 645.352417,158.412918 637.623413,165.772034
	C643.468628,172.442383 648.977661,178.533722 654.269836,184.807999
	C666.188843,198.938965 678.347473,212.887604 689.770752,227.412109
	C705.146790,246.962646 719.906677,266.997406 735.000488,286.771362
	C735.762634,287.769867 737.119507,288.777954 738.302856,288.919952
	C750.473694,290.380249 762.690613,291.471497 774.846191,293.041199
	C791.470459,295.187927 808.106079,297.337585 824.639709,300.072876
	C847.072998,303.784119 869.414368,308.050751 891.897034,312.097504
	C892.542603,309.615631 893.433777,306.845459 893.973938,304.008423
	C898.034912,282.678711 902.426758,261.400726 905.901611,239.974655
	C908.278320,225.320068 910.316833,210.484009 910.785706,195.674576
	C911.608276,169.698898 911.654602,143.697189 905.111572,118.130501
	C900.251526,99.140060 893.254028,81.499260 878.472778,66.982033
M911.000000,874.497437
	C912.021729,826.075500 903.225830,779.000854 891.947998,732.641663
	C876.797180,735.485291 862.058655,738.414490 847.258484,740.989380
	C827.262207,744.468201 807.272644,748.061157 787.178101,750.876099
	C770.981750,753.145142 754.628357,754.284241 738.363831,756.096375
	C737.089722,756.238342 735.663330,757.505371 734.821472,758.632996
	C729.287476,766.045593 724.049561,773.682312 718.421448,781.020691
	C708.803406,793.561584 699.136475,806.072266 689.182800,818.346436
	C677.854980,832.315247 666.243164,846.055481 654.648560,859.805420
	C649.166443,866.306580 643.436951,872.599182 637.463501,879.391113
	C642.101318,883.534546 646.442200,887.551941 650.930359,891.397522
	C666.726990,904.932617 682.207153,918.870789 698.487244,931.799988
	C723.516541,951.677551 750.304626,968.928894 780.088501,980.934265
	C800.805115,989.284729 821.880981,996.100525 844.889465,993.096008
	C857.726929,991.419617 868.899963,986.486938 878.410034,977.980408
	C889.468933,968.088318 896.187500,955.237915 900.914185,941.460144
	C908.232727,920.127502 911.070129,898.009399 911.000000,874.497437
M68.003708,507.694275
	C64.156204,522.190430 66.130768,535.953430 72.689964,549.355469
	C81.046600,566.430237 93.644356,579.743774 108.117462,591.742676
	C123.944031,604.863708 140.944763,616.155762 159.438950,624.917175
	C180.865997,635.067993 202.522064,644.836670 224.550629,653.582520
	C240.369446,659.862915 256.962708,664.192688 273.626801,669.525940
	C276.210693,661.677979 278.436371,654.289307 281.067108,647.047791
	C288.488586,626.618958 295.830078,606.155212 303.676910,585.888672
	C309.906830,569.798279 316.781982,553.955933 323.483948,538.051086
	C325.722473,532.738708 330.244629,527.556946 330.199097,522.346252
	C330.153076,517.078796 325.507599,511.946472 323.283295,506.586304
	C314.694916,485.889862 305.925140,465.258179 297.888000,444.346741
	C291.071655,426.611664 285.179382,408.521637 278.861359,390.594635
	C277.121582,385.658112 275.321350,380.742920 273.476929,375.618073
	C270.918518,376.542419 268.993958,377.395691 266.985626,377.939667
	C236.076630,386.312042 206.114059,397.326935 177.231155,411.090576
	C163.216782,417.768890 149.430496,425.082367 136.165771,433.137238
	C119.891136,443.019867 104.824875,454.550629 91.659424,468.593262
	C81.103905,479.852081 73.127731,492.375946 68.003708,507.694275
M885.999451,555.506836
	C900.536621,593.276489 915.073792,631.046143 929.632385,668.871338
	C935.562073,667.114441 941.919312,665.347290 948.203430,663.349976
	C987.044983,651.004639 1024.851074,636.250366 1060.091553,615.461548
	C1082.260620,602.383728 1102.454834,586.906128 1118.625488,566.738831
	C1127.858887,555.223328 1134.498657,542.154541 1135.870483,527.239990
	C1137.198975,512.798035 1132.489868,499.659973 1124.955200,487.473114
	C1116.617065,473.986511 1105.669434,462.942780 1093.499390,452.867432
	C1079.056763,440.910553 1063.637451,430.330261 1046.879517,422.194000
	C1024.114258,411.141144 1000.923767,400.859558 977.444458,391.419006
	C961.664246,385.074036 945.068298,380.757721 928.559509,375.444336
	C927.895935,377.372345 927.416077,378.712250 926.972229,380.063934
	C911.271973,427.868073 893.529602,474.873444 872.165588,520.468811
	C871.716003,521.428406 871.627380,522.921082 872.045044,523.867310
	C876.600464,534.186584 881.290710,544.446411 885.999451,555.506836
M563.026978,247.456451
	C553.366760,259.426605 543.706604,271.396729 533.192688,284.424713
	C540.262512,283.871033 545.818542,283.104340 551.380249,283.060242
	C570.876770,282.905731 590.375305,283.000031 609.873047,283.000000
	C623.531860,282.999969 637.192261,282.879700 650.848694,283.059326
	C656.358154,283.131775 661.859009,283.860748 667.363770,284.290985
	C667.663818,283.837402 667.963867,283.383820 668.263977,282.930237
	C646.141785,256.387421 624.019592,229.844620 601.911072,203.318237
	C600.530396,204.242065 600.057983,204.438217 599.749939,204.781754
	C591.291748,214.215302 582.763977,223.588638 574.444702,233.143448
	C570.598022,237.561401 567.163696,242.338333 563.026978,247.456451
M629.990417,808.514282
	C642.671021,792.896362 655.351624,777.278442 667.754150,762.003052
	C623.061157,762.003052 578.812439,762.003052 533.719482,762.003052
	C555.883240,788.629456 577.986389,815.183044 600.604492,842.355164
	C610.819885,830.558533 620.147034,819.787720 629.990417,808.514282
M876.443420,362.982971
	C863.797180,360.321991 851.177612,357.524750 838.496704,355.041046
	C827.353577,352.858582 816.171204,350.835968 804.951294,349.097534
	C794.834961,347.530060 784.644165,346.443481 775.480530,345.271942
	C797.455444,383.310699 819.733948,421.874969 841.974854,460.374176
	C848.220398,444.123474 854.876892,427.550720 860.955505,410.768677
	C866.602417,395.178741 871.632874,379.365509 876.443420,362.982971
M862.999878,639.463684
	C855.951111,621.045105 848.902405,602.626526 841.995789,584.579285
	C819.712463,623.150940 797.450317,661.685974 775.426819,699.807922
	C778.746399,699.304321 783.034546,698.621460 787.332581,698.007935
	C799.244019,696.307678 811.218018,694.966553 823.059692,692.874817
	C840.104309,689.864075 857.065063,686.369934 874.018616,682.873596
	C875.130676,682.644226 876.902344,680.302429 876.641296,679.516846
	C872.276123,666.378967 867.635681,653.332642 862.999878,639.463684
M374.051117,435.649231
	C391.675049,405.415375 409.298981,375.181549 426.807159,345.146301
	C392.850769,349.914795 358.560791,354.935822 323.780243,363.376740
	C336.043060,396.589630 347.915649,428.745667 360.195557,462.004944
	C365.253052,452.589203 369.600403,444.495514 374.051117,435.649231
M374.564056,691.999451
	C392.210510,694.700439 409.856964,697.401367 426.665314,699.974060
	C404.551605,661.696106 382.280640,623.145874 359.751709,584.149170
	C347.887726,616.350891 335.996338,648.627014 323.786102,681.768494
	C330.985138,683.339905 337.064117,684.744080 343.176483,685.983643
	C353.330353,688.042725 363.505646,689.996216 374.564056,691.999451
z"/>
<path fill="#000000" opacity="1.000000" stroke="none"
	d="
M864.468628,1044.000000
	C864.455750,1043.339600 864.807068,1042.215210 865.382202,1042.085815
	C887.882080,1037.023560 906.516174,1025.337280 921.893982,1008.481201
	C933.604431,995.645020 941.807922,980.561768 948.009277,964.374390
	C954.176819,948.275085 957.565674,931.576538 960.209229,914.545105
	C963.791260,891.467957 963.364746,868.322632 962.758972,845.217834
	C962.335815,829.078613 960.339539,812.891846 957.824707,796.918640
	C954.651978,776.766541 950.269348,756.803589 946.336426,736.773254
	C945.192078,730.945251 943.800903,725.165710 942.599731,719.712769
	C958.917175,714.496094 975.574463,709.862122 991.711365,703.834656
	C1011.312378,696.513306 1030.860352,688.822937 1049.715332,679.796814
	C1067.759888,671.158508 1085.308350,661.281189 1102.305542,650.711304
	C1121.638428,638.689087 1138.751465,623.597961 1153.786255,606.504517
	C1169.249023,588.924622 1180.736938,568.863220 1185.559937,545.694336
	C1188.403320,532.034912 1188.660889,518.275330 1186.265869,504.235565
	C1182.184570,480.310974 1171.481934,459.914734 1156.111938,441.642853
	C1142.073242,424.953735 1125.872070,410.700928 1107.913818,398.267181
	C1088.143311,384.578583 1067.222900,373.015930 1045.471313,362.939392
	C1017.055664,349.775635 987.683655,339.076599 957.712341,330.018433
	C952.619873,328.479340 947.509216,327.000610 943.202454,325.728912
	C947.467896,303.370148 952.040710,281.036774 955.894897,258.580078
	C958.182983,245.248428 960.027893,231.764069 960.843689,218.274094
	C962.111938,197.302689 963.420898,176.230194 962.691956,155.270813
	C961.970276,134.519119 958.684875,113.918159 952.523743,93.842987
	C946.169922,73.140198 937.145996,53.875057 922.876038,37.594353
	C907.608032,20.174967 888.594666,8.287886 865.785339,2.963179
	C864.911743,2.759256 864.148926,2.080832 863.667236,1.311759
	C976.304749,1.000000 1088.609497,1.000000 1200.957031,1.000000
	C1200.957031,348.549469 1200.957031,696.098938 1200.957031,1044.000000
	C1088.979370,1044.000000 976.958313,1044.000000 864.468628,1044.000000
z"/>
<path fill="#000000" opacity="1.000000" stroke="none"
	d="
M337.531342,0.999996
	C337.544312,1.660491 337.192627,2.785869 336.617950,2.914451
	C313.908020,7.995512 295.194733,19.896572 279.718872,36.900585
	C268.254578,49.496910 260.330536,64.393501 254.045990,80.141068
	C247.297607,97.050957 242.784836,114.723145 241.290573,132.720032
	C239.443573,154.964966 238.870636,177.396606 239.271957,199.720169
	C239.562073,215.857346 241.663422,232.055710 244.174210,248.035553
	C247.340256,268.185883 251.709839,288.148499 255.637558,308.176910
	C256.783020,314.017853 258.192566,319.807007 259.367889,325.109283
	C241.148972,331.111206 222.672211,336.813446 204.469894,343.287354
	C179.036880,352.332886 154.315353,363.111115 130.513702,375.898224
	C111.212311,386.267639 92.595245,397.817871 75.806824,411.893738
	C54.800957,429.505676 36.088860,449.207153 24.674896,474.743469
	C19.554119,486.200134 16.364637,498.058075 14.858272,510.599487
	C11.840831,535.721558 17.472248,558.909058 30.018442,580.330322
	C36.207458,590.897400 43.816174,600.798279 51.837170,610.090271
	C65.530586,625.953491 81.587402,639.533081 99.371872,650.444275
	C118.484077,662.170166 138.390579,672.717651 158.495224,682.680054
	C183.216812,694.930115 209.282654,703.996094 235.609573,712.220459
	C243.610764,714.720032 251.650421,717.096497 258.897186,719.294250
	C254.923355,739.757324 250.588501,760.166199 247.091690,780.717651
	C244.496307,795.971130 242.224106,811.358093 241.183395,826.778442
	C239.768768,847.739563 238.356995,868.848267 239.302902,889.787109
	C240.774918,922.372253 246.911179,954.127441 262.705963,983.389709
	C277.775665,1011.308655 299.905365,1030.616333 330.066895,1040.618164
	C332.923828,1041.565552 335.798950,1042.458252 338.332825,1043.688110
	C225.695267,1044.000000 113.390526,1044.000000 1.042895,1044.000000
	C1.042895,696.450439 1.042895,348.900879 1.042895,1.000000
	C113.020653,1.000000 225.041672,1.000000 337.531342,0.999996
z"/>
<path fill="#000000" opacity="1.000000" stroke="none"
	d="
M399.468658,1044.000000
	C399.458282,1043.340820 399.822418,1042.202393 400.388397,1042.091187
	C428.318512,1036.602539 453.699646,1024.827759 478.499329,1011.289551
	C500.620544,999.213562 520.961609,984.575012 540.911438,969.383118
	C552.484558,960.570068 563.298889,950.744202 574.272644,941.165466
	C583.313843,933.273499 592.087097,925.074707 601.028931,916.966797
	C605.951599,921.408020 610.953186,925.686707 615.692810,930.238098
	C634.139404,947.951782 654.013062,963.905273 674.460632,979.247009
	C697.337341,996.411316 721.429382,1011.486877 747.296814,1023.615845
	C764.702515,1031.777344 782.610168,1038.709106 801.691223,1042.069092
	C802.403320,1042.194458 803.010620,1042.915161 803.333374,1043.679199
	C668.645752,1044.000000 534.291565,1044.000000 399.468658,1044.000000
z"/>
<path fill="#000000" opacity="1.000000" stroke="none"
	d="
M802.531372,0.999992
	C802.542419,1.659095 802.178711,2.798038 801.613831,2.908503
	C773.515686,8.404014 747.592346,19.571669 723.194580,34.119061
	C705.163818,44.870071 687.526672,56.372578 670.378418,68.480927
	C658.393921,76.943092 647.366516,86.802376 636.212891,96.388176
	C624.342896,106.589607 612.827942,117.204109 600.892334,127.875694
	C596.446777,123.915985 591.770264,119.587135 586.921265,115.461014
	C569.595581,100.718292 552.430298,85.775604 534.797546,71.407852
	C508.825012,50.244530 480.311371,33.012024 449.882965,19.072514
	C433.876587,11.739854 417.293854,5.834848 399.808289,2.888678
	C399.261383,2.796525 398.821228,2.070872 398.665649,1.320277
	C533.354248,1.000000 667.708435,1.000000 802.531372,0.999992
z"/>
<path fill="#000000" opacity="1.000000" stroke="none"
	d="
M707.509338,339.017456
	C724.835632,366.023163 742.320862,392.484497 758.696716,419.615417
	C770.548218,439.250519 781.066467,459.699677 791.913696,479.928223
	C798.954163,493.057556 805.586060,506.408844 812.196167,519.762085
	C812.929443,521.243347 812.971680,523.722473 812.231812,525.178589
	C801.665344,545.973816 791.463989,566.983826 780.058228,587.315918
	C765.752441,612.817688 750.615601,637.861938 735.456360,662.872803
	C727.077148,676.697388 718.005432,690.107666 709.002258,703.541443
	C707.884399,705.209351 705.321777,706.733826 703.334351,706.862061
	C689.003296,707.786499 674.648193,708.340271 660.300110,708.998047
	C652.710632,709.346008 645.122620,709.757629 637.529236,709.980286
	C623.774658,710.383423 610.016174,710.945923 596.260071,710.927124
	C580.169983,710.905212 564.075378,710.487915 547.992554,709.949890
	C535.467896,709.531006 522.956665,708.691284 510.442596,707.983154
	C506.182892,707.742188 501.895660,707.562195 497.696594,706.885376
	C496.032318,706.617126 493.995544,705.444580 493.106659,704.056946
	C476.347290,677.894043 459.249084,651.928955 443.249878,625.304626
	C431.103180,605.091187 420.258057,584.086853 409.096497,563.293396
	C402.355499,550.735168 396.042236,537.943909 389.753204,525.151062
	C389.029999,523.679993 389.070618,521.204224 389.818359,519.734009
	C400.390991,498.945526 410.462769,477.859436 422.019867,457.624512
	C439.252502,427.452606 457.480774,397.846588 475.466370,368.109253
	C480.995453,358.967499 487.047913,350.137512 493.035645,341.283020
	C493.992035,339.868744 495.760040,338.393341 497.347565,338.132843
	C501.704346,337.417969 506.159637,337.213745 510.585175,337.026062
	C520.335999,336.612701 530.090698,336.263824 539.847046,336.016083
	C555.269775,335.624420 570.696533,335.393097 586.118652,334.981293
	C593.213257,334.791840 600.303162,334.011047 607.390869,334.065918
	C623.315491,334.189178 639.242676,334.512421 655.158752,335.050415
	C667.512085,335.467987 679.855957,336.244995 692.192322,337.043671
	C697.208618,337.368469 702.193848,338.173401 707.509338,339.017456
M551.410583,615.055359
	C573.205200,627.318481 596.833435,629.655029 620.818176,625.711365
	C641.889648,622.246704 660.333618,612.142944 675.485962,596.898987
	C685.514587,586.809692 693.927979,575.239319 698.475342,561.699158
	C701.951355,551.348755 704.837891,540.476379 705.727173,529.650574
	C707.440125,508.797272 702.750732,489.021851 692.309509,470.593048
	C682.390564,453.086121 668.740784,439.522308 651.134338,430.091553
	C634.929565,421.411560 617.599121,417.500763 599.014160,417.803894
	C583.188965,418.062042 568.414612,421.546295 554.359985,428.327576
	C540.516174,435.007172 528.468567,444.225525 519.134705,456.522034
	C514.465454,462.673370 509.849030,469.102142 506.613617,476.058807
	C497.875488,494.847260 494.108154,514.514893 496.816193,535.458557
	C498.484009,548.357544 502.195343,560.446655 508.074310,571.771423
	C517.766296,590.441223 532.327209,604.638367 551.410583,615.055359
z"/>
<path fill="#000000" opacity="1.000000" stroke="none"
	d="
M294.966187,127.856628
	C297.787964,117.333565 299.932220,107.008308 303.546173,97.225998
	C307.790436,85.737556 314.202362,75.267090 323.543274,67.027000
	C333.129669,58.570381 344.246124,53.563709 357.087585,51.914146
	C380.425415,48.916252 401.761749,55.886940 422.779846,64.425430
	C452.261505,76.402199 478.710999,93.596764 503.543030,113.222397
	C519.344727,125.711090 534.394897,139.153778 549.712097,152.250534
	C554.707458,156.521744 559.481812,161.051392 564.495239,165.587738
	C558.238892,172.687103 552.296631,179.253448 546.552856,185.989044
	C537.845337,196.200134 529.097961,206.385895 520.689392,216.841232
	C508.127686,232.460587 495.755463,248.235016 483.485046,264.084656
	C477.821808,271.399811 472.641113,279.087067 467.107849,286.505859
	C466.278534,287.617798 464.777771,288.766510 463.480286,288.907043
	C452.731323,290.070923 441.927917,290.762177 431.198517,292.068726
	C420.057373,293.425446 408.978851,295.298920 397.875824,296.965424
	C386.777527,298.631226 375.630890,300.038025 364.598694,302.065948
	C348.196106,305.081085 331.877838,308.553986 315.516754,311.797241
	C313.827484,312.132111 312.091309,312.230560 309.815674,312.506897
	C306.567841,297.349457 303.072083,282.069000 300.070038,266.692108
	C297.736115,254.737671 295.705780,242.703842 294.127777,230.628525
	C292.936981,221.516418 292.409271,212.293015 292.060394,203.101151
	C291.500793,188.357742 290.764923,173.582840 291.195129,158.853149
	C291.493408,148.639236 293.625916,138.478897 294.966187,127.856628
z"/>
<path fill="#000000" opacity="1.000000" stroke="none"
	d="
M422.696106,980.718262
	C408.939240,984.951111 395.733521,990.251404 382.019714,992.666382
	C358.340851,996.836121 336.396545,992.268494 319.274048,973.698486
	C309.092468,962.656128 303.326019,949.162781 298.993134,934.972717
	C290.353485,906.678162 290.205444,877.548035 291.200714,848.453674
	C291.696167,833.970947 293.947327,819.509277 296.040314,805.130676
	C298.307281,789.556946 301.144775,774.058838 304.065063,758.590393
	C305.738159,749.728149 308.070526,740.990295 310.006134,732.628479
	C326.990967,735.809937 343.513794,738.969910 360.063202,741.984009
	C373.319275,744.398376 386.569031,746.895508 399.893250,748.872864
	C411.523865,750.598938 423.249329,751.698303 434.942657,752.985779
	C444.698120,754.059875 454.474304,754.949463 464.221436,756.090637
	C465.234253,756.209167 466.320740,757.322815 467.021606,758.242554
	C482.103455,778.034424 496.878510,798.066406 512.261230,817.620605
	C523.689209,832.147522 535.849304,846.100891 547.771057,860.235718
	C553.061584,866.508301 558.569031,872.598022 564.370605,879.218811
	C556.952148,886.271179 549.722473,893.503235 542.098999,900.293213
	C534.032043,907.477966 525.926392,914.698181 517.242615,921.095154
	C498.954285,934.567200 480.588287,947.983032 461.637482,960.487244
	C451.054016,967.470459 439.244476,972.599670 427.959167,978.510376
	C426.395996,979.329102 424.669495,979.835876 422.696106,980.718262
z"/>
<path fill="#000000" opacity="1.000000" stroke="none"
	d="
M878.729431,67.230377
	C893.254028,81.499260 900.251526,99.140060 905.111572,118.130501
	C911.654602,143.697189 911.608276,169.698898 910.785706,195.674576
	C910.316833,210.484009 908.278320,225.320068 905.901611,239.974655
	C902.426758,261.400726 898.034912,282.678711 893.973938,304.008423
	C893.433777,306.845459 892.542603,309.615631 891.897034,312.097504
	C869.414368,308.050751 847.072998,303.784119 824.639709,300.072876
	C808.106079,297.337585 791.470459,295.187927 774.846191,293.041199
	C762.690613,291.471497 750.473694,290.380249 738.302856,288.919952
	C737.119507,288.777954 735.762634,287.769867 735.000488,286.771362
	C719.906677,266.997406 705.146790,246.962646 689.770752,227.412109
	C678.347473,212.887604 666.188843,198.938965 654.269836,184.807999
	C648.977661,178.533722 643.468628,172.442383 637.623413,165.772034
	C645.352417,158.412918 652.922058,150.829559 660.907593,143.712860
	C668.218567,137.197311 675.760864,130.895889 683.586914,125.013260
	C699.403076,113.124657 715.173523,101.132141 731.527039,90.012276
	C752.841553,75.519043 775.736206,63.999180 800.620117,56.745323
	C812.884888,53.170036 825.331543,50.469307 838.143127,51.087498
	C853.277039,51.817749 866.997620,56.692482 878.729431,67.230377
z"/>
<path fill="#000000" opacity="1.000000" stroke="none"
	d="
M911.000000,874.996582
	C911.070129,898.009399 908.232727,920.127502 900.914185,941.460144
	C896.187500,955.237915 889.468933,968.088318 878.410034,977.980408
	C868.899963,986.486938 857.726929,991.419617 844.889465,993.096008
	C821.880981,996.100525 800.805115,989.284729 780.088501,980.934265
	C750.304626,968.928894 723.516541,951.677551 698.487244,931.799988
	C682.207153,918.870789 666.726990,904.932617 650.930359,891.397522
	C646.442200,887.551941 642.101318,883.534546 637.463501,879.391113
	C643.436951,872.599182 649.166443,866.306580 654.648560,859.805420
	C666.243164,846.055481 677.854980,832.315247 689.182800,818.346436
	C699.136475,806.072266 708.803406,793.561584 718.421448,781.020691
	C724.049561,773.682312 729.287476,766.045593 734.821472,758.632996
	C735.663330,757.505371 737.089722,756.238342 738.363831,756.096375
	C754.628357,754.284241 770.981750,753.145142 787.178101,750.876099
	C807.272644,748.061157 827.262207,744.468201 847.258484,740.989380
	C862.058655,738.414490 876.797180,735.485291 891.947998,732.641663
	C903.225830,779.000854 912.021729,826.075500 911.000000,874.996582
z"/>
<path fill="#000000" opacity="1.000000" stroke="none"
	d="
M68.023193,507.272156
	C73.127731,492.375946 81.103905,479.852081 91.659424,468.593262
	C104.824875,454.550629 119.891136,443.019867 136.165771,433.137238
	C149.430496,425.082367 163.216782,417.768890 177.231155,411.090576
	C206.114059,397.326935 236.076630,386.312042 266.985626,377.939667
	C268.993958,377.395691 270.918518,376.542419 273.476929,375.618073
	C275.321350,380.742920 277.121582,385.658112 278.861359,390.594635
	C285.179382,408.521637 291.071655,426.611664 297.888000,444.346741
	C305.925140,465.258179 314.694916,485.889862 323.283295,506.586304
	C325.507599,511.946472 330.153076,517.078796 330.199097,522.346252
	C330.244629,527.556946 325.722473,532.738708 323.483948,538.051086
	C316.781982,553.955933 309.906830,569.798279 303.676910,585.888672
	C295.830078,606.155212 288.488586,626.618958 281.067108,647.047791
	C278.436371,654.289307 276.210693,661.677979 273.626801,669.525940
	C256.962708,664.192688 240.369446,659.862915 224.550629,653.582520
	C202.522064,644.836670 180.865997,635.067993 159.438950,624.917175
	C140.944763,616.155762 123.944031,604.863708 108.117462,591.742676
	C93.644356,579.743774 81.046600,566.430237 72.689964,549.355469
	C66.130768,535.953430 64.156204,522.190430 68.023193,507.272156
z"/>
<path fill="#000000" opacity="1.000000" stroke="none"
	d="
M885.971802,555.114624
	C881.290710,544.446411 876.600464,534.186584 872.045044,523.867310
	C871.627380,522.921082 871.716003,521.428406 872.165588,520.468811
	C893.529602,474.873444 911.271973,427.868073 926.972229,380.063934
	C927.416077,378.712250 927.895935,377.372345 928.559509,375.444336
	C945.068298,380.757721 961.664246,385.074036 977.444458,391.419006
	C1000.923767,400.859558 1024.114258,411.141144 1046.879517,422.194000
	C1063.637451,430.330261 1079.056763,440.910553 1093.499390,452.867432
	C1105.669434,462.942780 1116.617065,473.986511 1124.955200,487.473114
	C1132.489868,499.659973 1137.198975,512.798035 1135.870483,527.239990
	C1134.498657,542.154541 1127.858887,555.223328 1118.625488,566.738831
	C1102.454834,586.906128 1082.260620,602.383728 1060.091553,615.461548
	C1024.851074,636.250366 987.044983,651.004639 948.203430,663.349976
	C941.919312,665.347290 935.562073,667.114441 929.632385,668.871338
	C915.073792,631.046143 900.536621,593.276489 885.971802,555.114624
z"/>
<path fill="#000000" opacity="1.000000" stroke="none"
	d="
M563.284729,247.204483
	C567.163696,242.338333 570.598022,237.561401 574.444702,233.143448
	C582.763977,223.588638 591.291748,214.215302 599.749939,204.781754
	C600.057983,204.438217 600.530396,204.242065 601.911072,203.318237
	C624.019592,229.844620 646.141785,256.387421 668.263977,282.930237
	C667.963867,283.383820 667.663818,283.837402 667.363770,284.290985
	C661.859009,283.860748 656.358154,283.131775 650.848694,283.059326
	C637.192261,282.879700 623.531860,282.999969 609.873047,283.000000
	C590.375305,283.000031 570.876770,282.905731 551.380249,283.060242
	C545.818542,283.104340 540.262512,283.871033 533.192688,284.424713
	C543.706604,271.396729 553.366760,259.426605 563.284729,247.204483
z"/>
<path fill="#000000" opacity="1.000000" stroke="none"
	d="
M629.732300,808.765625
	C620.147034,819.787720 610.819885,830.558533 600.604492,842.355164
	C577.986389,815.183044 555.883240,788.629456 533.719482,762.003052
	C578.812439,762.003052 623.061157,762.003052 667.754150,762.003052
	C655.351624,777.278442 642.671021,792.896362 629.732300,808.765625
z"/>
<path fill="#000000" opacity="1.000000" stroke="none"
	d="
M876.689087,363.316772
	C871.632874,379.365509 866.602417,395.178741 860.955505,410.768677
	C854.876892,427.550720 848.220398,444.123474 841.974854,460.374176
	C819.733948,421.874969 797.455444,383.310699 775.480530,345.271942
	C784.644165,346.443481 794.834961,347.530060 804.951294,349.097534
	C816.171204,350.835968 827.353577,352.858582 838.496704,355.041046
	C851.177612,357.524750 863.797180,360.321991 876.689087,363.316772
z"/>
<path fill="#000000" opacity="1.000000" stroke="none"
	d="
M863.028198,639.864807
	C867.635681,653.332642 872.276123,666.378967 876.641296,679.516846
	C876.902344,680.302429 875.130676,682.644226 874.018616,682.873596
	C857.065063,686.369934 840.104309,689.864075 823.059692,692.874817
	C811.218018,694.966553 799.244019,696.307678 787.332581,698.007935
	C783.034546,698.621460 778.746399,699.304321 775.426819,699.807922
	C797.450317,661.685974 819.712463,623.150940 841.995789,584.579285
	C848.902405,602.626526 855.951111,621.045105 863.028198,639.864807
z"/>
<path fill="#000000" opacity="1.000000" stroke="none"
	d="
M373.999451,436.025513
	C369.600403,444.495514 365.253052,452.589203 360.195557,462.004944
	C347.915649,428.745667 336.043060,396.589630 323.780243,363.376740
	C358.560791,354.935822 392.850769,349.914795 426.807159,345.146301
	C409.298981,375.181549 391.675049,405.415375 373.999451,436.025513
z"/>
<path fill="#000000" opacity="1.000000" stroke="none"
	d="
M374.117981,691.996826
	C363.505646,689.996216 353.330353,688.042725 343.176483,685.983643
	C337.064117,684.744080 330.985138,683.339905 323.786102,681.768494
	C335.996338,648.627014 347.887726,616.350891 359.751709,584.149170
	C382.280640,623.145874 404.551605,661.696106 426.665314,699.974060
	C409.856964,697.401367 392.210510,694.700439 374.117981,691.996826
z"/>
<path fill="#61DAFB" opacity="1.000000" stroke="none"
	d="
M551.033203,615.007080
	C532.327209,604.638367 517.766296,590.441223 508.074310,571.771423
	C502.195343,560.446655 498.484009,548.357544 496.816193,535.458557
	C494.108154,514.514893 497.875488,494.847260 506.613617,476.058807
	C509.849030,469.102142 514.465454,462.673370 519.134705,456.522034
	C528.468567,444.225525 540.516174,435.007172 554.359985,428.327576
	C568.414612,421.546295 583.188965,418.062042 599.014160,417.803894
	C617.599121,417.500763 634.929565,421.411560 651.134338,430.091553
	C668.740784,439.522308 682.390564,453.086121 692.309509,470.593048
	C702.750732,489.021851 707.440125,508.797272 705.727173,529.650574
	C704.837891,540.476379 701.951355,551.348755 698.475342,561.699158
	C693.927979,575.239319 685.514587,586.809692 675.485962,596.898987
	C660.333618,612.142944 641.889648,622.246704 620.818176,625.711365
	C596.833435,629.655029 573.205200,627.318481 551.033203,615.007080
z"/>
</svg>
